<svg xmlns="http://www.w3.org/2000/svg" xmlns:xlink="http://www.w3.org/1999/xlink" width="4720px" height="1024px"
  viewBox="0 0 4720 1024" version="1.1" style="&#10;    background: black;&#10;">
  <g id="SVG" stroke="none" stroke-width="1" fill="none" fill-rule="evenodd">
    <g xmlns="http://www.w3.org/2000/svg" id="Icon">
      <rect xmlns="http://www.w3.org/2000/svg" id="rounded-rectangle" height="860" width="4560" stroke="#FFFFFF"
        rx="430" stroke-width="36" fill="#E79537" y="82px" x="82px" />

      <rect xmlns="http://www.w3.org/2000/svg" id="rounded-rectangle" height="860" width="860" stroke="#FFFFFF" rx="430"
        stroke-width="36" fill="#E79537" y="82px" x="82px" />
      <g id="Glyph" transform="translate(336.000000, 280.000000)">
        <path
          d="M92,335.02442 L92,44 C92,30.745166 102.745166,20 116,20 L356,20 C369.254834,20 380,30.745166 380,44 C380,57.254834 369.254834,68 356,68 L140,68 L140,188 L239.428571,188 C250.789858,188 260,198.745166 260,212 C260,225.254834 250.789858,236 239.428571,236 L140,236 L140,335.02442 C181.405453,345.681447 212,383.267854 212,428 C212,481.019336 169.019336,524 116,524 C62.980664,524 20,481.019336 20,428 C20,383.267854 50.5945469,345.681447 92,335.02442 Z"
          id="Shadow" fill="#000000" fill-rule="nonzero" opacity="0.0980980283" />
        <path
          d="M72,315.02442 L72,24 C72,10.745166 82.745166,0 96,0 L336,0 C349.254834,0 360,10.745166 360,24 C360,37.254834 349.254834,48 336,48 L120,48 L120,168 L219.428571,168 C230.789858,168 240,178.745166 240,192 C240,205.254834 230.789858,216 219.428571,216 L120,216 L120,315.02442 C161.405453,325.681447 192,363.267854 192,408 C192,461.019336 149.019336,504 96,504 C42.980664,504 0,461.019336 0,408 C0,363.267854 30.5945469,325.681447 72,315.02442 Z"
          id="Path" fill="#FFFFFF" fill-rule="nonzero" />
        <path
          d="M96,456 C122.509668,456 144,434.509668 144,408 C144,381.490332 122.509668,360 96,360 C69.490332,360 48,381.490332 48,408 C48,434.509668 69.490332,456 96,456 Z"
          id="Dot" fill="#EB5E00" />
      </g>
      <text x="1324px" y="650px" fill="white" font-size="400px" font-family="arial">Open In Fiddle</text>
    </g>
  </g>
</svg>